<svg width="8" height="15" viewBox="0 0 8 15" fill="none" xmlns="http://www.w3.org/2000/svg">
<path d="M7.7348 13.3217C8.10941 13.7275 8.0841 14.3602 7.67828 14.7348C7.27246 15.1094 6.6398 15.0841 6.2652 14.6783L7.7348 13.3217ZM1 7.5L0.265197 8.17828C-0.0883988 7.79522 -0.0883988 7.20478 0.265197 6.82172L1 7.5ZM6.2652 0.321719C6.6398 -0.0841007 7.27246 -0.109407 7.67828 0.265196C8.0841 0.6398 8.10941 1.27246 7.7348 1.67828L6.2652 0.321719ZM6.2652 14.6783L0.265197 8.17828L1.7348 6.82172L7.7348 13.3217L6.2652 14.6783ZM0.265197 6.82172L6.2652 0.321719L7.7348 1.67828L1.7348 8.17828L0.265197 6.82172Z" fill="white"/>
</svg>
