<svg width="8" height="15" viewBox="0 0 8 15" fill="none" xmlns="http://www.w3.org/2000/svg">
<path d="M0.265196 13.3217C-0.109407 13.7275 -0.0841007 14.3602 0.32172 14.7348C0.72754 15.1094 1.3602 15.0841 1.7348 14.6783L0.265196 13.3217ZM7 7.5L7.7348 8.17828C8.0884 7.79522 8.0884 7.20478 7.7348 6.82172L7 7.5ZM1.7348 0.321719C1.3602 -0.0841007 0.72754 -0.109407 0.32172 0.265196C-0.0841007 0.6398 -0.109407 1.27246 0.265196 1.67828L1.7348 0.321719ZM1.7348 14.6783L7.7348 8.17828L6.2652 6.82172L0.265196 13.3217L1.7348 14.6783ZM7.7348 6.82172L1.7348 0.321719L0.265196 1.67828L6.2652 8.17828L7.7348 6.82172Z" fill="white"/>
</svg>
